<mxfile host="65bd71144e" pages="3" scale="1" border="25">
    <diagram id="5l3RLa2JeeH_BvYrvwnl" name="Overview">
        <mxGraphModel dx="1081" dy="512" grid="1" gridSize="10" guides="1" tooltips="1" connect="1" arrows="1" fold="1" page="0" pageScale="1" pageWidth="827" pageHeight="1169" background="none" math="0" shadow="0">
            <root>
                <mxCell id="0"/>
                <mxCell id="1" parent="0"/>
                <mxCell id="0RjLsbFAr739ArAHnehY-1" value="Core" style="rounded=0;whiteSpace=wrap;html=1;fillColor=#a20025;fontColor=#ffffff;strokeColor=#6F0000;" parent="1" vertex="1">
                    <mxGeometry x="40" y="460" width="600" height="60" as="geometry"/>
                </mxCell>
                <mxCell id="0RjLsbFAr739ArAHnehY-2" value="&lt;div&gt;Core.Command&lt;/div&gt;" style="rounded=0;whiteSpace=wrap;html=1;fillColor=#a20025;fontColor=#ffffff;strokeColor=#6F0000;" parent="1" vertex="1">
                    <mxGeometry x="450" y="330" width="180" height="60" as="geometry"/>
                </mxCell>
                <mxCell id="0RjLsbFAr739ArAHnehY-3" value="Command" style="rounded=0;whiteSpace=wrap;html=1;fillColor=#0050ef;strokeColor=#001DBC;fontColor=#ffffff;" parent="1" vertex="1">
                    <mxGeometry x="370" y="190" width="180" height="60" as="geometry"/>
                </mxCell>
                <mxCell id="0RjLsbFAr739ArAHnehY-4" value="Service" style="rounded=0;whiteSpace=wrap;html=1;fillColor=#0050ef;strokeColor=#001DBC;fontColor=#ffffff;" parent="1" vertex="1">
                    <mxGeometry x="197" y="190" width="120" height="60" as="geometry"/>
                </mxCell>
                <mxCell id="0RjLsbFAr739ArAHnehY-5" value="Data" style="rounded=0;whiteSpace=wrap;html=1;fillColor=#0050ef;strokeColor=#001DBC;fontColor=#ffffff;" parent="1" vertex="1">
                    <mxGeometry x="40" y="190" width="120" height="60" as="geometry"/>
                </mxCell>
                <mxCell id="0RjLsbFAr739ArAHnehY-6" value="API" style="rounded=0;whiteSpace=wrap;html=1;fillColor=#008a00;fontColor=#ffffff;strokeColor=#005700;" parent="1" vertex="1">
                    <mxGeometry x="40" y="40" width="600" height="60" as="geometry"/>
                </mxCell>
                <mxCell id="0RjLsbFAr739ArAHnehY-37" value="" style="endArrow=classic;html=1;rounded=0;exitX=0.08;exitY=1.04;exitDx=0;exitDy=0;exitPerimeter=0;entryX=0.336;entryY=0.011;entryDx=0;entryDy=0;entryPerimeter=0;fontColor=#000000;" parent="1" edge="1">
                    <mxGeometry width="50" height="50" relative="1" as="geometry">
                        <mxPoint x="100.59999999999991" y="102.39999999999998" as="sourcePoint"/>
                        <mxPoint x="99.31999999999994" y="190.66000000000008" as="targetPoint"/>
                    </mxGeometry>
                </mxCell>
                <mxCell id="0RjLsbFAr739ArAHnehY-38" value="" style="endArrow=classic;html=1;rounded=0;exitX=0.324;exitY=0.982;exitDx=0;exitDy=0;exitPerimeter=0;entryX=0.321;entryY=0;entryDx=0;entryDy=0;entryPerimeter=0;fontColor=#000000;" parent="1" edge="1">
                    <mxGeometry width="50" height="50" relative="1" as="geometry">
                        <mxPoint x="257.48" y="98.91999999999996" as="sourcePoint"/>
                        <mxPoint x="257.5200000000002" y="190" as="targetPoint"/>
                    </mxGeometry>
                </mxCell>
                <mxCell id="0RjLsbFAr739ArAHnehY-39" value="" style="endArrow=classic;html=1;rounded=0;exitX=0.324;exitY=0.982;exitDx=0;exitDy=0;exitPerimeter=0;entryX=0.321;entryY=0;entryDx=0;entryDy=0;entryPerimeter=0;fontColor=#000000;" parent="1" edge="1">
                    <mxGeometry width="50" height="50" relative="1" as="geometry">
                        <mxPoint x="458.66" y="98.91999999999996" as="sourcePoint"/>
                        <mxPoint x="458.7000000000002" y="190" as="targetPoint"/>
                    </mxGeometry>
                </mxCell>
                <mxCell id="0RjLsbFAr739ArAHnehY-40" value="" style="endArrow=classic;html=1;rounded=0;exitX=0.324;exitY=0.982;exitDx=0;exitDy=0;exitPerimeter=0;fontColor=#000000;" parent="1" edge="1">
                    <mxGeometry width="50" height="50" relative="1" as="geometry">
                        <mxPoint x="500.6600000000001" y="249.99999999999997" as="sourcePoint"/>
                        <mxPoint x="501" y="330" as="targetPoint"/>
                    </mxGeometry>
                </mxCell>
                <mxCell id="0RjLsbFAr739ArAHnehY-41" value="" style="endArrow=classic;html=1;rounded=0;exitX=0.324;exitY=0.982;exitDx=0;exitDy=0;exitPerimeter=0;fontColor=#000000;" parent="1" edge="1">
                    <mxGeometry width="50" height="50" relative="1" as="geometry">
                        <mxPoint x="99.66000000000008" y="250" as="sourcePoint"/>
                        <mxPoint x="100" y="460" as="targetPoint"/>
                    </mxGeometry>
                </mxCell>
                <mxCell id="0RjLsbFAr739ArAHnehY-42" value="" style="endArrow=classic;html=1;rounded=0;exitX=0.324;exitY=0.982;exitDx=0;exitDy=0;exitPerimeter=0;entryX=0.041;entryY=-0.006;entryDx=0;entryDy=0;entryPerimeter=0;fontColor=#000000;" parent="1" edge="1">
                    <mxGeometry width="50" height="50" relative="1" as="geometry">
                        <mxPoint x="257.4000000000001" y="250.36" as="sourcePoint"/>
                        <mxPoint x="256.60000000000014" y="460.0000000000001" as="targetPoint"/>
                    </mxGeometry>
                </mxCell>
                <mxCell id="0RjLsbFAr739ArAHnehY-44" value="" style="endArrow=classic;html=1;rounded=0;exitX=0.324;exitY=0.982;exitDx=0;exitDy=0;exitPerimeter=0;fontColor=#000000;" parent="1" edge="1">
                    <mxGeometry width="50" height="50" relative="1" as="geometry">
                        <mxPoint x="352.4000000000001" y="99.99999999999989" as="sourcePoint"/>
                        <mxPoint x="352" y="460" as="targetPoint"/>
                    </mxGeometry>
                </mxCell>
                <mxCell id="0RjLsbFAr739ArAHnehY-45" value="" style="endArrow=classic;html=1;rounded=0;fontColor=#000000;" parent="1" edge="1">
                    <mxGeometry width="50" height="50" relative="1" as="geometry">
                        <mxPoint x="600" y="100" as="sourcePoint"/>
                        <mxPoint x="600" y="330" as="targetPoint"/>
                    </mxGeometry>
                </mxCell>
                <mxCell id="Diat5o6CPJeOi4nogShZ-1" value="" style="endArrow=classic;html=1;rounded=0;exitX=0.25;exitY=1;exitDx=0;exitDy=0;entryX=0.627;entryY=-0.033;entryDx=0;entryDy=0;entryPerimeter=0;fontColor=#000000;" parent="1" source="0RjLsbFAr739ArAHnehY-3" target="0RjLsbFAr739ArAHnehY-1" edge="1">
                    <mxGeometry width="50" height="50" relative="1" as="geometry">
                        <mxPoint x="390" y="410" as="sourcePoint"/>
                        <mxPoint x="440" y="360" as="targetPoint"/>
                    </mxGeometry>
                </mxCell>
                <mxCell id="TcvHlRB_My0ruUSQvF34-1" value="" style="endArrow=classic;html=1;rounded=0;exitX=0.5;exitY=1;exitDx=0;exitDy=0;entryX=0.835;entryY=-0.017;entryDx=0;entryDy=0;entryPerimeter=0;fontColor=#000000;" parent="1" source="0RjLsbFAr739ArAHnehY-2" target="0RjLsbFAr739ArAHnehY-1" edge="1">
                    <mxGeometry width="50" height="50" relative="1" as="geometry">
                        <mxPoint x="425" y="260" as="sourcePoint"/>
                        <mxPoint x="426.20000000000005" y="468.02" as="targetPoint"/>
                    </mxGeometry>
                </mxCell>
            </root>
        </mxGraphModel>
    </diagram>
    <diagram id="u9PNluLoe6LuYGnDGpDT" name="Core">
        <mxGraphModel dx="1481" dy="910" grid="1" gridSize="10" guides="1" tooltips="1" connect="1" arrows="1" fold="1" page="0" pageScale="1" pageWidth="827" pageHeight="1169" background="none" math="0" shadow="0">
            <root>
                <mxCell id="b4RVU2xaQB8NPv-2THdo-0"/>
                <mxCell id="b4RVU2xaQB8NPv-2THdo-1" parent="b4RVU2xaQB8NPv-2THdo-0"/>
                <mxCell id="zvtcAzANKOFFkBpTrTCl-0" value="Core" style="rounded=0;whiteSpace=wrap;html=1;fillColor=none;strokeColor=#6F0000;verticalAlign=top;fontColor=#ffffff;" vertex="1" parent="b4RVU2xaQB8NPv-2THdo-1">
                    <mxGeometry x="-140" y="-20" width="790" height="530" as="geometry"/>
                </mxCell>
                <mxCell id="83_C6NRHCI61qBxoyRdT-5" value="Services" style="rounded=0;whiteSpace=wrap;html=1;fontColor=#FFFFFF;fillColor=none;verticalAlign=top;" vertex="1" parent="b4RVU2xaQB8NPv-2THdo-1">
                    <mxGeometry x="-110" y="260" width="350" height="200" as="geometry"/>
                </mxCell>
                <mxCell id="83_C6NRHCI61qBxoyRdT-4" value="Repositories" style="rounded=0;whiteSpace=wrap;html=1;fontColor=#FFFFFF;fillColor=none;verticalAlign=top;" vertex="1" parent="b4RVU2xaQB8NPv-2THdo-1">
                    <mxGeometry x="260" y="260" width="360" height="220" as="geometry"/>
                </mxCell>
                <mxCell id="83_C6NRHCI61qBxoyRdT-3" value="Models" style="rounded=0;whiteSpace=wrap;html=1;fontColor=#FFFFFF;fillColor=none;verticalAlign=top;" vertex="1" parent="b4RVU2xaQB8NPv-2THdo-1">
                    <mxGeometry x="130" y="30" width="270" height="210" as="geometry"/>
                </mxCell>
                <mxCell id="83_C6NRHCI61qBxoyRdT-2" value="Events" style="rounded=0;whiteSpace=wrap;html=1;fontColor=#FFFFFF;fillColor=none;verticalAlign=top;" vertex="1" parent="b4RVU2xaQB8NPv-2THdo-1">
                    <mxGeometry x="-110" y="30" width="220" height="210" as="geometry"/>
                </mxCell>
                <mxCell id="zvtcAzANKOFFkBpTrTCl-1" value="#ClientEventArgs" style="rounded=0;whiteSpace=wrap;html=1;fontColor=#ffffff;fillColor=#a20025;strokeColor=#6F0000;" vertex="1" parent="b4RVU2xaQB8NPv-2THdo-1">
                    <mxGeometry x="-80" y="80" width="120" height="60" as="geometry"/>
                </mxCell>
                <mxCell id="CPSvH11X7OdjcfFw_P6B-0" value="#ReceivedDataEventArgs" style="rounded=0;whiteSpace=wrap;html=1;fontColor=#ffffff;fillColor=#a20025;strokeColor=#6F0000;" vertex="1" parent="b4RVU2xaQB8NPv-2THdo-1">
                    <mxGeometry x="-80" y="160" width="160" height="60" as="geometry"/>
                </mxCell>
                <mxCell id="CPSvH11X7OdjcfFw_P6B-1" value="#Client" style="rounded=0;whiteSpace=wrap;html=1;fontColor=#ffffff;fillColor=#a20025;strokeColor=#6F0000;" vertex="1" parent="b4RVU2xaQB8NPv-2THdo-1">
                    <mxGeometry x="280" y="80" width="100" height="60" as="geometry"/>
                </mxCell>
                <mxCell id="CPSvH11X7OdjcfFw_P6B-2" value="#ReceivedData" style="rounded=0;whiteSpace=wrap;html=1;fontColor=#ffffff;fillColor=#a20025;strokeColor=#6F0000;" vertex="1" parent="b4RVU2xaQB8NPv-2THdo-1">
                    <mxGeometry x="160" y="160" width="120" height="60" as="geometry"/>
                </mxCell>
                <mxCell id="CPSvH11X7OdjcfFw_P6B-3" value="#User" style="rounded=0;whiteSpace=wrap;html=1;fontColor=#ffffff;fillColor=#a20025;strokeColor=#6F0000;" vertex="1" parent="b4RVU2xaQB8NPv-2THdo-1">
                    <mxGeometry x="160" y="80" width="100" height="60" as="geometry"/>
                </mxCell>
                <mxCell id="CPSvH11X7OdjcfFw_P6B-4" value="#ITCPListenerProvider" style="rounded=0;whiteSpace=wrap;html=1;fontColor=#ffffff;fillColor=#a20025;strokeColor=#6F0000;" vertex="1" parent="b4RVU2xaQB8NPv-2THdo-1">
                    <mxGeometry x="430" y="80" width="150" height="60" as="geometry"/>
                </mxCell>
                <mxCell id="CPSvH11X7OdjcfFw_P6B-6" value="#IRepository" style="rounded=0;whiteSpace=wrap;html=1;fontColor=#ffffff;fillColor=#a20025;strokeColor=#6F0000;" vertex="1" parent="b4RVU2xaQB8NPv-2THdo-1">
                    <mxGeometry x="360" y="300" width="150" height="60" as="geometry"/>
                </mxCell>
                <mxCell id="CPSvH11X7OdjcfFw_P6B-7" value="#IClientRepository" style="rounded=0;whiteSpace=wrap;html=1;fontColor=#ffffff;fillColor=#a20025;strokeColor=#6F0000;" vertex="1" parent="b4RVU2xaQB8NPv-2THdo-1">
                    <mxGeometry x="280" y="380" width="150" height="60" as="geometry"/>
                </mxCell>
                <mxCell id="CPSvH11X7OdjcfFw_P6B-8" value="#IUserRepository" style="rounded=0;whiteSpace=wrap;html=1;fontColor=#ffffff;fillColor=#a20025;strokeColor=#6F0000;" vertex="1" parent="b4RVU2xaQB8NPv-2THdo-1">
                    <mxGeometry x="450" y="380" width="150" height="60" as="geometry"/>
                </mxCell>
                <mxCell id="CPSvH11X7OdjcfFw_P6B-12" value="#IConnectionService" style="rounded=0;whiteSpace=wrap;html=1;fontColor=#ffffff;fillColor=#a20025;strokeColor=#6F0000;" vertex="1" parent="b4RVU2xaQB8NPv-2THdo-1">
                    <mxGeometry x="75" y="380" width="150" height="60" as="geometry"/>
                </mxCell>
                <mxCell id="CPSvH11X7OdjcfFw_P6B-13" value="#IDataService" style="rounded=0;whiteSpace=wrap;html=1;fontColor=#ffffff;fillColor=#a20025;strokeColor=#6F0000;" vertex="1" parent="b4RVU2xaQB8NPv-2THdo-1">
                    <mxGeometry x="-95" y="380" width="150" height="60" as="geometry"/>
                </mxCell>
                <mxCell id="CPSvH11X7OdjcfFw_P6B-14" value="#IClientService" style="rounded=0;whiteSpace=wrap;html=1;fontColor=#ffffff;fillColor=#a20025;strokeColor=#6F0000;" vertex="1" parent="b4RVU2xaQB8NPv-2THdo-1">
                    <mxGeometry x="75" y="300" width="150" height="60" as="geometry"/>
                </mxCell>
                <mxCell id="CPSvH11X7OdjcfFw_P6B-15" value="#IUserService" style="rounded=0;whiteSpace=wrap;html=1;fontColor=#ffffff;fillColor=#a20025;strokeColor=#6F0000;" vertex="1" parent="b4RVU2xaQB8NPv-2THdo-1">
                    <mxGeometry x="-95" y="300" width="150" height="60" as="geometry"/>
                </mxCell>
                <mxCell id="CPSvH11X7OdjcfFw_P6B-16" value="#IUnitOfWork" style="rounded=0;whiteSpace=wrap;html=1;fontColor=#ffffff;fillColor=#a20025;strokeColor=#6F0000;" vertex="1" parent="b4RVU2xaQB8NPv-2THdo-1">
                    <mxGeometry x="430" y="160" width="150" height="60" as="geometry"/>
                </mxCell>
            </root>
        </mxGraphModel>
    </diagram>
    <diagram id="mHsO36aNvHckov-rtZXm" name="Core.Command">
        <mxGraphModel dx="1081" dy="512" grid="1" gridSize="10" guides="1" tooltips="1" connect="1" arrows="1" fold="1" page="0" pageScale="1" pageWidth="827" pageHeight="1169" background="#333333" math="0" shadow="0">
            <root>
                <mxCell id="HaGUEOKAotL2KWmrwZpP-0"/>
                <mxCell id="HaGUEOKAotL2KWmrwZpP-1" parent="HaGUEOKAotL2KWmrwZpP-0"/>
            </root>
        </mxGraphModel>
    </diagram>
    <diagram id="sa3MN5rC74soXwH7eSCn" name="Data">
        <mxGraphModel dx="1481" dy="510" grid="1" gridSize="10" guides="1" tooltips="1" connect="1" arrows="1" fold="1" page="0" pageScale="1" pageWidth="827" pageHeight="1169" background="none" math="0" shadow="0">
            <root>
                <mxCell id="5X_1nW69dslxSTDKY_-u-0"/>
                <mxCell id="5X_1nW69dslxSTDKY_-u-1" parent="5X_1nW69dslxSTDKY_-u-0"/>
                <mxCell id="vxQYN-OGxoyJYR17p4Jv-1" value="Core" style="rounded=0;whiteSpace=wrap;html=1;verticalAlign=top;fillColor=none;strokeColor=#6F0000;fontColor=#ffffff;" parent="5X_1nW69dslxSTDKY_-u-1" vertex="1">
                    <mxGeometry x="590" y="40" width="180" height="490" as="geometry"/>
                </mxCell>
                <mxCell id="vxQYN-OGxoyJYR17p4Jv-0" value="Data" style="rounded=0;whiteSpace=wrap;html=1;fillColor=none;strokeColor=#001DBC;verticalAlign=top;fontColor=#ffffff;" parent="5X_1nW69dslxSTDKY_-u-1" vertex="1">
                    <mxGeometry x="-10" y="40" width="540" height="490" as="geometry"/>
                </mxCell>
                <mxCell id="OUgX0M2blKJ1DYa0HND_-0" value="#Repository&amp;lt;T&amp;gt;" style="rounded=0;whiteSpace=wrap;html=1;" parent="5X_1nW69dslxSTDKY_-u-1" vertex="1">
                    <mxGeometry x="250" y="90" width="250" height="60" as="geometry"/>
                </mxCell>
                <mxCell id="OUgX0M2blKJ1DYa0HND_-1" value="&lt;div&gt;#ClientRepository&lt;/div&gt;" style="rounded=0;whiteSpace=wrap;html=1;" parent="5X_1nW69dslxSTDKY_-u-1" vertex="1">
                    <mxGeometry x="250" y="230" width="120" height="60" as="geometry"/>
                </mxCell>
                <mxCell id="OUgX0M2blKJ1DYa0HND_-2" value="#UserRepository" style="rounded=0;whiteSpace=wrap;html=1;" parent="5X_1nW69dslxSTDKY_-u-1" vertex="1">
                    <mxGeometry x="380" y="310" width="120" height="60" as="geometry"/>
                </mxCell>
                <mxCell id="OUgX0M2blKJ1DYa0HND_-3" value="#TCPChatServerContext" style="rounded=0;whiteSpace=wrap;html=1;" parent="5X_1nW69dslxSTDKY_-u-1" vertex="1">
                    <mxGeometry x="20" y="90" width="150" height="60" as="geometry"/>
                </mxCell>
                <mxCell id="OUgX0M2blKJ1DYa0HND_-4" value="#UnitOfWork" style="rounded=0;whiteSpace=wrap;html=1;fillColor=#0050ef;fontColor=#ffffff;strokeColor=#001DBC;" parent="5X_1nW69dslxSTDKY_-u-1" vertex="1">
                    <mxGeometry x="310" y="440" width="120" height="60" as="geometry"/>
                </mxCell>
                <mxCell id="OUgX0M2blKJ1DYa0HND_-7" value="Extends" style="endArrow=block;endSize=16;endFill=0;html=1;rounded=0;exitX=0.5;exitY=0;exitDx=0;exitDy=0;entryX=0.25;entryY=1;entryDx=0;entryDy=0;labelBackgroundColor=none;fontColor=#FFFFFF;" parent="5X_1nW69dslxSTDKY_-u-1" source="OUgX0M2blKJ1DYa0HND_-1" target="OUgX0M2blKJ1DYa0HND_-0" edge="1">
                    <mxGeometry width="160" relative="1" as="geometry">
                        <mxPoint x="500" y="390" as="sourcePoint"/>
                        <mxPoint x="660" y="390" as="targetPoint"/>
                    </mxGeometry>
                </mxCell>
                <mxCell id="OUgX0M2blKJ1DYa0HND_-8" value="Extends" style="endArrow=block;endSize=16;endFill=0;html=1;rounded=0;exitX=0.5;exitY=0;exitDx=0;exitDy=0;entryX=0.75;entryY=1;entryDx=0;entryDy=0;labelBackgroundColor=none;fontColor=#FFFFFF;" parent="5X_1nW69dslxSTDKY_-u-1" source="OUgX0M2blKJ1DYa0HND_-2" target="OUgX0M2blKJ1DYa0HND_-0" edge="1">
                    <mxGeometry width="160" relative="1" as="geometry">
                        <mxPoint x="500" y="390" as="sourcePoint"/>
                        <mxPoint x="660" y="390" as="targetPoint"/>
                    </mxGeometry>
                </mxCell>
                <mxCell id="OUgX0M2blKJ1DYa0HND_-10" value="" style="html=1;endArrow=diamondThin;endFill=1;edgeStyle=elbowEdgeStyle;elbow=vertical;endSize=10;rounded=0;exitX=0.25;exitY=0;exitDx=0;exitDy=0;" parent="5X_1nW69dslxSTDKY_-u-1" source="OUgX0M2blKJ1DYa0HND_-4" target="OUgX0M2blKJ1DYa0HND_-1" edge="1">
                    <mxGeometry width="160" relative="1" as="geometry">
                        <mxPoint x="330" y="330" as="sourcePoint"/>
                        <mxPoint x="490" y="330" as="targetPoint"/>
                    </mxGeometry>
                </mxCell>
                <mxCell id="OUgX0M2blKJ1DYa0HND_-11" value="" style="html=1;endArrow=diamondThin;endFill=1;edgeStyle=elbowEdgeStyle;elbow=vertical;endSize=10;rounded=0;exitX=0.75;exitY=0;exitDx=0;exitDy=0;" parent="5X_1nW69dslxSTDKY_-u-1" source="OUgX0M2blKJ1DYa0HND_-4" target="OUgX0M2blKJ1DYa0HND_-2" edge="1">
                    <mxGeometry width="160" relative="1" as="geometry">
                        <mxPoint x="350" y="380" as="sourcePoint"/>
                        <mxPoint x="320" y="300" as="targetPoint"/>
                    </mxGeometry>
                </mxCell>
                <mxCell id="OUgX0M2blKJ1DYa0HND_-13" value="Use" style="endArrow=open;endSize=12;dashed=1;html=1;rounded=0;exitX=0;exitY=0.5;exitDx=0;exitDy=0;entryX=1;entryY=0.5;entryDx=0;entryDy=0;labelBackgroundColor=none;fontColor=#FFFFFF;" parent="5X_1nW69dslxSTDKY_-u-1" source="OUgX0M2blKJ1DYa0HND_-0" target="OUgX0M2blKJ1DYa0HND_-3" edge="1">
                    <mxGeometry width="160" relative="1" as="geometry">
                        <mxPoint x="295" y="410" as="sourcePoint"/>
                        <mxPoint x="190" y="410" as="targetPoint"/>
                    </mxGeometry>
                </mxCell>
                <mxCell id="OUgX0M2blKJ1DYa0HND_-14" value="#IRepository&amp;lt;T&amp;gt;" style="rounded=0;whiteSpace=wrap;html=1;" parent="5X_1nW69dslxSTDKY_-u-1" vertex="1">
                    <mxGeometry x="620" y="90" width="120" height="60" as="geometry"/>
                </mxCell>
                <mxCell id="OUgX0M2blKJ1DYa0HND_-15" value="#IClientRepository" style="rounded=0;whiteSpace=wrap;html=1;" parent="5X_1nW69dslxSTDKY_-u-1" vertex="1">
                    <mxGeometry x="620" y="230" width="120" height="60" as="geometry"/>
                </mxCell>
                <mxCell id="OUgX0M2blKJ1DYa0HND_-16" value="#IUserRepesitory" style="rounded=0;whiteSpace=wrap;html=1;" parent="5X_1nW69dslxSTDKY_-u-1" vertex="1">
                    <mxGeometry x="620" y="310" width="120" height="60" as="geometry"/>
                </mxCell>
                <mxCell id="OUgX0M2blKJ1DYa0HND_-17" value="#IUnitOfWork" style="rounded=0;whiteSpace=wrap;html=1;" parent="5X_1nW69dslxSTDKY_-u-1" vertex="1">
                    <mxGeometry x="620" y="440" width="120" height="60" as="geometry"/>
                </mxCell>
                <mxCell id="OUgX0M2blKJ1DYa0HND_-18" value="" style="endArrow=block;dashed=1;endFill=0;endSize=12;html=1;rounded=0;exitX=1;exitY=0.5;exitDx=0;exitDy=0;entryX=0;entryY=0.5;entryDx=0;entryDy=0;" parent="5X_1nW69dslxSTDKY_-u-1" source="OUgX0M2blKJ1DYa0HND_-0" target="OUgX0M2blKJ1DYa0HND_-14" edge="1">
                    <mxGeometry width="160" relative="1" as="geometry">
                        <mxPoint x="470" y="40" as="sourcePoint"/>
                        <mxPoint x="630" y="40" as="targetPoint"/>
                    </mxGeometry>
                </mxCell>
                <mxCell id="OUgX0M2blKJ1DYa0HND_-20" value="" style="endArrow=block;dashed=1;endFill=0;endSize=12;html=1;rounded=0;exitX=1;exitY=0.5;exitDx=0;exitDy=0;entryX=0;entryY=0.5;entryDx=0;entryDy=0;" parent="5X_1nW69dslxSTDKY_-u-1" source="OUgX0M2blKJ1DYa0HND_-2" target="OUgX0M2blKJ1DYa0HND_-16" edge="1">
                    <mxGeometry width="160" relative="1" as="geometry">
                        <mxPoint x="350" y="270" as="sourcePoint"/>
                        <mxPoint x="610" y="230" as="targetPoint"/>
                    </mxGeometry>
                </mxCell>
                <mxCell id="OUgX0M2blKJ1DYa0HND_-21" value="" style="endArrow=block;dashed=1;endFill=0;endSize=12;html=1;rounded=0;exitX=1;exitY=0.5;exitDx=0;exitDy=0;entryX=0;entryY=0.5;entryDx=0;entryDy=0;" parent="5X_1nW69dslxSTDKY_-u-1" source="OUgX0M2blKJ1DYa0HND_-4" target="OUgX0M2blKJ1DYa0HND_-17" edge="1">
                    <mxGeometry width="160" relative="1" as="geometry">
                        <mxPoint x="480" y="340" as="sourcePoint"/>
                        <mxPoint x="610" y="320" as="targetPoint"/>
                    </mxGeometry>
                </mxCell>
                <mxCell id="VKIMmSazcQD7x0LFguXO-0" value="" style="endArrow=block;dashed=1;endFill=0;endSize=12;html=1;exitX=1;exitY=0.5;exitDx=0;exitDy=0;entryX=0;entryY=0.5;entryDx=0;entryDy=0;" parent="5X_1nW69dslxSTDKY_-u-1" source="OUgX0M2blKJ1DYa0HND_-1" target="OUgX0M2blKJ1DYa0HND_-15" edge="1">
                    <mxGeometry width="160" relative="1" as="geometry">
                        <mxPoint x="310" y="300" as="sourcePoint"/>
                        <mxPoint x="470" y="300" as="targetPoint"/>
                        <Array as="points"/>
                    </mxGeometry>
                </mxCell>
                <mxCell id="VKIMmSazcQD7x0LFguXO-1" value="#TCPChatServerContext" style="rounded=0;whiteSpace=wrap;html=1;fillColor=#0050ef;fontColor=#ffffff;strokeColor=#001DBC;" parent="5X_1nW69dslxSTDKY_-u-1" vertex="1">
                    <mxGeometry x="20" y="90" width="150" height="60" as="geometry"/>
                </mxCell>
                <mxCell id="VKIMmSazcQD7x0LFguXO-2" value="#Repository&amp;lt;T&amp;gt;" style="rounded=0;whiteSpace=wrap;html=1;fillColor=#0050ef;fontColor=#ffffff;strokeColor=#001DBC;" parent="5X_1nW69dslxSTDKY_-u-1" vertex="1">
                    <mxGeometry x="250" y="90" width="250" height="60" as="geometry"/>
                </mxCell>
                <mxCell id="VKIMmSazcQD7x0LFguXO-3" value="#IRepository&amp;lt;T&amp;gt;" style="rounded=0;whiteSpace=wrap;html=1;fillColor=#a20025;fontColor=#ffffff;strokeColor=#6F0000;" parent="5X_1nW69dslxSTDKY_-u-1" vertex="1">
                    <mxGeometry x="620" y="90" width="120" height="60" as="geometry"/>
                </mxCell>
                <mxCell id="VKIMmSazcQD7x0LFguXO-4" value="&lt;div&gt;#ClientRepository&lt;/div&gt;" style="rounded=0;whiteSpace=wrap;html=1;fillColor=#0050ef;fontColor=#ffffff;strokeColor=#001DBC;" parent="5X_1nW69dslxSTDKY_-u-1" vertex="1">
                    <mxGeometry x="250" y="230" width="120" height="60" as="geometry"/>
                </mxCell>
                <mxCell id="VKIMmSazcQD7x0LFguXO-5" value="#UserRepository" style="rounded=0;whiteSpace=wrap;html=1;fillColor=#0050ef;fontColor=#ffffff;strokeColor=#001DBC;" parent="5X_1nW69dslxSTDKY_-u-1" vertex="1">
                    <mxGeometry x="380" y="310" width="120" height="60" as="geometry"/>
                </mxCell>
                <mxCell id="VKIMmSazcQD7x0LFguXO-6" value="#IClientRepository" style="rounded=0;whiteSpace=wrap;html=1;fillColor=#a20025;fontColor=#ffffff;strokeColor=#6F0000;" parent="5X_1nW69dslxSTDKY_-u-1" vertex="1">
                    <mxGeometry x="620" y="230" width="120" height="60" as="geometry"/>
                </mxCell>
                <mxCell id="VKIMmSazcQD7x0LFguXO-7" value="#IUserRepesitory" style="rounded=0;whiteSpace=wrap;html=1;fillColor=#a20025;fontColor=#ffffff;strokeColor=#6F0000;" parent="5X_1nW69dslxSTDKY_-u-1" vertex="1">
                    <mxGeometry x="620" y="310" width="120" height="60" as="geometry"/>
                </mxCell>
                <mxCell id="VKIMmSazcQD7x0LFguXO-8" value="#IUnitOfWork" style="rounded=0;whiteSpace=wrap;html=1;fillColor=#a20025;fontColor=#ffffff;strokeColor=#6F0000;" parent="5X_1nW69dslxSTDKY_-u-1" vertex="1">
                    <mxGeometry x="620" y="440" width="120" height="60" as="geometry"/>
                </mxCell>
            </root>
        </mxGraphModel>
    </diagram>
</mxfile>